<?xml version="1.0" encoding="UTF-8" standalone="no"?>
<svg
   xmlns:dc="http://purl.org/dc/elements/1.1/"
   xmlns:cc="http://creativecommons.org/ns#"
   xmlns:rdf="http://www.w3.org/1999/02/22-rdf-syntax-ns#"
   xmlns:svg="http://www.w3.org/2000/svg"
   xmlns="http://www.w3.org/2000/svg"
   xmlns:sodipodi="http://sodipodi.sourceforge.net/DTD/sodipodi-0.dtd"
   xmlns:inkscape="http://www.inkscape.org/namespaces/inkscape"
   version="1.1"
   id="svg2"
   xml:space="preserve"
   width="1285.5781"
   height="930.15491"
   viewBox="0 0 1285.5781 930.15492"
   sodipodi:docname="logo_CB_color_vn.svg"
   inkscape:version="1.0.1 (3bc2e813f5, 2020-09-07)"><metadata
     id="metadata8"><rdf:RDF><cc:Work
         rdf:about=""><dc:format>image/svg+xml</dc:format><dc:type
           rdf:resource="http://purl.org/dc/dcmitype/StillImage" /><dc:title /></cc:Work></rdf:RDF></metadata><defs
     id="defs6"><clipPath
       clipPathUnits="userSpaceOnUse"
       id="clipPath18"><path
         d="M 934.236,773.552 V 673.541 h 0.02 c 0.006,-6.099 3.359,-11.996 9.193,-14.912 v 0 -0.002 l 0.008,-0.006 170.199,-85.092 v 100.006 l -100.009,50.01 -70.188,35.088 -0.01,0.008 v 0.004 c -5.834,2.913 -9.187,8.797 -9.193,14.907 v 0 z"
         id="path16" /></clipPath><linearGradient
       x1="0"
       y1="0"
       x2="1"
       y2="0"
       gradientUnits="userSpaceOnUse"
       gradientTransform="matrix(177.99997,0,0,-177.99997,933.65723,673.54053)"
       spreadMethod="pad"
       id="linearGradient30"><stop
         style="stop-opacity:1;stop-color:#007bc1"
         offset="0"
         id="stop24" /><stop
         style="stop-opacity:1;stop-color:#2c6bb5"
         offset="0.4"
         id="stop26" /><stop
         style="stop-opacity:1;stop-color:#004789"
         offset="1"
         id="stop28" /></linearGradient><clipPath
       clipPathUnits="userSpaceOnUse"
       id="clipPath40"><path
         d="m 1113.656,673.543 100.014,-50.012 70.192,35.098 v 0 l 10e-4,0.008 c 5.839,2.92 9.184,8.805 9.207,14.906 v 0 c 0,2.51 -0.559,5.043 -1.757,7.455 v 0 c -1.611,3.222 -4.227,5.833 -7.451,7.445 v 0 0 l -170.206,85.109 z"
         id="path38" /></clipPath><linearGradient
       x1="0"
       y1="0"
       x2="1"
       y2="0"
       gradientUnits="userSpaceOnUse"
       gradientTransform="matrix(80.99987,-159,-159,-80.99987,1144.6904,790.72052)"
       spreadMethod="pad"
       id="linearGradient52"><stop
         style="stop-opacity:1;stop-color:#007bc1"
         offset="0"
         id="stop46" /><stop
         style="stop-opacity:1;stop-color:#2c6bb5"
         offset="0.4"
         id="stop48" /><stop
         style="stop-opacity:1;stop-color:#005198"
         offset="1"
         id="stop50" /></linearGradient><clipPath
       clipPathUnits="userSpaceOnUse"
       id="clipPath62"><path
         d="m 1293.072,673.543 c -0.023,-6.101 -3.368,-11.986 -9.207,-14.906 v 0 l -10e-4,-0.008 v 0 l -70.192,-35.098 -100.014,-50.002 V 473.518 l 170.206,85.098 v 0 l 10e-4,0.015 c 5.839,2.912 9.184,8.793 9.207,14.898 v 0 h 0.01 v 100.014 z"
         id="path60" /></clipPath><linearGradient
       x1="0"
       y1="0"
       x2="1"
       y2="0"
       gradientUnits="userSpaceOnUse"
       gradientTransform="matrix(-177.00383,0,0,177.00383,1291.6582,573.53027)"
       spreadMethod="pad"
       id="linearGradient74"><stop
         style="stop-opacity:1;stop-color:#007bc1"
         offset="0"
         id="stop68" /><stop
         style="stop-opacity:1;stop-color:#2c6bb5"
         offset="0.4"
         id="stop70" /><stop
         style="stop-opacity:1;stop-color:#004789"
         offset="1"
         id="stop72" /></linearGradient><clipPath
       clipPathUnits="userSpaceOnUse"
       id="clipPath84"><path
         d="m 1113.656,873.553 -170.199,-85.09 -0.008,-0.012 c -3.224,-1.612 -5.834,-4.222 -7.451,-7.447 v 0 c -1.2,-2.397 -1.748,-4.944 -1.742,-7.452 v 0 c 0.006,-6.11 3.359,-11.994 9.193,-14.907 v 0 -0.004 l 0.01,-0.008 70.188,-35.088 100.009,50.007 89.461,-44.729 v 189.461 l -89.459,-44.731 z"
         id="path82" /></clipPath><radialGradient
       fx="0"
       fy="0"
       cx="0"
       cy="0"
       r="1"
       gradientUnits="userSpaceOnUse"
       gradientTransform="matrix(-257.33176,-159.33243,-159.33243,257.33176,1202.702,918.33636)"
       spreadMethod="pad"
       id="radialGradient96"><stop
         style="stop-opacity:1;stop-color:#ffcf00"
         offset="0"
         id="stop90" /><stop
         style="stop-opacity:1;stop-color:#fbad17"
         offset="0.7"
         id="stop92" /><stop
         style="stop-opacity:1;stop-color:#f7931d"
         offset="1"
         id="stop94" /></radialGradient><clipPath
       clipPathUnits="userSpaceOnUse"
       id="clipPath106"><path
         d="M 0,1146.955 H 1622.11 V 0 H 0 Z"
         id="path104" /></clipPath></defs><sodipodi:namedview
     pagecolor="#ffffff"
     bordercolor="#666666"
     borderopacity="1"
     objecttolerance="10"
     gridtolerance="10"
     guidetolerance="10"
     inkscape:pageopacity="0"
     inkscape:pageshadow="2"
     inkscape:window-width="1920"
     inkscape:window-height="1001"
     id="namedview4"
     showgrid="false"
     inkscape:zoom="0.54273906"
     inkscape:cx="642.69836"
     inkscape:cy="459.73869"
     inkscape:window-x="-9"
     inkscape:window-y="-9"
     inkscape:window-maximized="1"
     inkscape:current-layer="g10"
     inkscape:document-rotation="0" /><g
     id="g10"
     inkscape:groupmode="layer"
     inkscape:label="CB_Logo"
     transform="matrix(1.3333333,0,0,-1.3333333,-438.70826,1224.3786)"><g
       id="g12"><g
         id="g14"
         clip-path="url(#clipPath18)"><g
           id="g20"><g
             id="g22"><path
               d="M 934.236,773.552 V 673.541 h 0.02 c 0.006,-6.099 3.359,-11.996 9.193,-14.912 v 0 -0.002 l 0.008,-0.006 170.199,-85.092 v 100.006 l -100.009,50.01 -70.188,35.088 -0.01,0.008 v 0.004 c -5.834,2.913 -9.187,8.797 -9.193,14.907 v 0 z"
               style="fill:url(#linearGradient30);stroke:none"
               id="path32" /></g></g></g></g><g
       id="g34"><g
         id="g36"
         clip-path="url(#clipPath40)"><g
           id="g42"><g
             id="g44"><path
               d="m 1113.656,673.543 100.014,-50.012 70.192,35.098 v 0 l 10e-4,0.008 c 5.839,2.92 9.184,8.805 9.207,14.906 v 0 c 0,2.51 -0.559,5.043 -1.757,7.455 v 0 c -1.611,3.222 -4.227,5.833 -7.451,7.445 v 0 0 l -170.206,85.109 z"
               style="fill:url(#linearGradient52);stroke:none"
               id="path54" /></g></g></g></g><g
       id="g56"><g
         id="g58"
         clip-path="url(#clipPath62)"><g
           id="g64"><g
             id="g66"><path
               d="m 1293.072,673.543 c -0.023,-6.101 -3.368,-11.986 -9.207,-14.906 v 0 l -10e-4,-0.008 v 0 l -70.192,-35.098 -100.014,-50.002 V 473.518 l 170.206,85.098 v 0 l 10e-4,0.015 c 5.839,2.912 9.184,8.793 9.207,14.898 v 0 h 0.01 v 100.014 z"
               style="fill:url(#linearGradient74);stroke:none"
               id="path76" /></g></g></g></g><g
       id="g78"><g
         id="g80"
         clip-path="url(#clipPath84)"><g
           id="g86"><g
             id="g88"><path
               d="m 1113.656,873.553 -170.199,-85.09 -0.008,-0.012 c -3.224,-1.612 -5.834,-4.222 -7.451,-7.447 v 0 c -1.2,-2.397 -1.748,-4.944 -1.742,-7.452 v 0 c 0.006,-6.11 3.359,-11.994 9.193,-14.907 v 0 -0.004 l 0.01,-0.008 70.188,-35.088 100.009,50.007 89.461,-44.729 v 189.461 l -89.459,-44.731 z"
               style="fill:url(#radialGradient96);stroke:none"
               id="path98" /></g></g></g></g><g
       id="g100"><g
         id="g102"
         clip-path="url(#clipPath106)"><g
           id="g108"
           transform="translate(490.7872,438.7129)"><path
             d="m 0,0 c -22.105,0 -38.119,1.539 -48.033,4.627 -9.381,3.215 -17.352,10.717 -23.918,22.508 -3.213,6.027 -5.795,11.586 -7.737,16.681 -1.945,5.09 -3.552,9.983 -4.824,14.672 -1.275,4.688 -2.109,9.28 -2.513,13.766 -0.401,4.49 -0.604,9.478 -0.604,14.976 0,9.645 0.908,18.991 2.717,28.038 1.807,9.042 5.592,18.519 11.355,28.437 5.76,9.914 14.27,16.711 25.524,20.399 11.254,3.685 25.658,5.525 43.215,5.525 h 37.763 v 0.008 c 5.776,0 11.141,2.99 14.178,7.904 L 82.531,234.83 H -25.641 c -25.482,0 -47.691,-3.547 -66.629,-10.631 -18.937,-7.09 -33.585,-19.418 -43.939,-36.988 -10.086,-17.309 -16.861,-34.135 -20.338,-50.484 -3.473,-16.352 -5.209,-33.862 -5.209,-52.526 0,-18.396 1.94,-36.316 5.824,-53.754 3.883,-17.439 10.729,-34.541 20.539,-51.297 5.041,-8.31 10.629,-15.328 16.76,-21.052 6.131,-5.721 13.25,-10.254 21.356,-13.592 8.107,-3.338 17.441,-5.791 28.002,-7.356 10.556,-1.564 22.718,-2.349 36.48,-2.349 h 74.672 c 5.775,0 11.14,2.99 14.178,7.904 L 91.469,0 h -0.955 z"
             style="fill:#005bab;fill-opacity:1;fill-rule:nonzero;stroke:none"
             id="path110" /></g><g
           id="g112"
           transform="translate(814.1368,581.9433)"><path
             d="m 0,0 c 0,-8.732 -3.895,-15.183 -11.686,-19.346 -7.792,-4.168 -19.95,-6.246 -36.473,-6.246 h -23.052 c -5.695,0 -10.982,-2.947 -13.978,-7.795 l -0.001,-0.002 v -0.002 l -35.538,-57.492 v 65.291 51.99 h 74.585 c 17.057,0 29.145,-1.746 36.271,-6.849 C -2.753,14.442 0.537,7.924 0,0 m -8.316,-208.391 c 19.891,0 35.698,1.704 47.415,5.11 11.717,3.267 22,11.576 30.857,24.928 8.718,13.759 13.08,28.41 13.08,43.941 -0.548,20.705 -5.791,37.326 -15.733,49.859 -9.951,12.539 -22.005,20.914 -36.173,25.139 21.645,6.818 35.724,28.057 39.725,46.799 1.088,5.308 1.907,10.011 2.452,14.099 0.545,4.086 0.82,7.629 0.82,10.629 0,9.805 -1.365,19.444 -4.092,28.914 -2.722,9.469 -8.037,18.834 -15.937,28.1 -3.817,4.766 -7.969,8.613 -12.465,11.547 -4.498,2.928 -9.676,5.211 -15.531,6.846 -5.86,1.634 -12.567,2.72 -20.129,3.267 -7.563,0.547 -8.972,0.822 -18.374,0.822 v 0.01 l -182.415,-0.021 -0.012,-300.035 z m -35.575,117.514 c 19.466,0 33.22,-1.129 41.348,-6.144 8.132,-5.028 11.934,-11.776 11.402,-20.233 0,-4.496 -1.482,-9.256 -4.459,-14.279 -2.974,-5.027 -7.306,-8.201 -12.992,-9.518 -5.947,-1.457 -14.871,-2.179 -26.769,-2.179 h -85.367 v 52.349 z"
             style="fill:#005bab;fill-opacity:1;fill-rule:nonzero;stroke:none"
             id="path114" /></g><g
           id="g116"
           transform="translate(394.3204,312.2676)"><path
             d="m 0,0 v -72.55 h -7.75 c -1.167,0 -2.15,0.192 -2.95,0.575 -0.8,0.383 -1.583,1.041 -2.35,1.975 l -36.15,46 c 0.1,-1.167 0.175,-2.316 0.225,-3.449 0.05,-1.135 0.075,-2.184 0.075,-3.151 V -72.55 H -62.15 V 0 h 7.9 c 0.633,0 1.175,-0.025 1.625,-0.074 0.45,-0.051 0.857,-0.168 1.225,-0.351 0.367,-0.183 0.716,-0.425 1.05,-0.725 0.332,-0.299 0.7,-0.7 1.1,-1.2 l 36.4,-46.2 c -0.133,1.267 -0.234,2.491 -0.3,3.675 -0.067,1.184 -0.1,2.309 -0.1,3.375 V 0 Z"
             style="fill:#005bab;fill-opacity:1;fill-rule:nonzero;stroke:none"
             id="path118" /></g><g
           id="g120"
           transform="translate(424.7002,267.418)"><path
             d="M 0,0 C 2.832,0 4.925,0.717 6.275,2.15 7.625,3.582 8.3,5.433 8.3,7.699 8.3,10.066 7.625,11.925 6.275,13.275 4.925,14.625 2.832,15.3 0,15.3 c -2.834,0 -4.918,-0.675 -6.25,-2.025 -1.334,-1.35 -2,-3.209 -2,-5.576 0,-2.232 0.675,-4.074 2.025,-5.524 C -4.875,0.725 -2.801,0 0,0 m 13.05,-29.801 c 0,0.901 -0.284,1.635 -0.851,2.201 -0.566,0.567 -1.324,1.016 -2.274,1.35 -0.95,0.332 -2.075,0.574 -3.375,0.725 -1.3,0.15 -2.684,0.266 -4.15,0.349 -1.467,0.084 -2.984,0.158 -4.55,0.226 -1.568,0.066 -3.1,0.182 -4.6,0.35 -1.168,-0.701 -2.125,-1.525 -2.875,-2.475 -0.75,-0.95 -1.125,-2.025 -1.125,-3.226 0,-0.832 0.191,-1.599 0.574,-2.299 0.383,-0.701 1.026,-1.3 1.926,-1.8 0.9,-0.5 2.082,-0.891 3.55,-1.175 1.466,-0.282 3.3,-0.425 5.5,-0.425 2.266,0 4.183,0.15 5.75,0.449 1.566,0.301 2.833,0.726 3.8,1.276 0.966,0.55 1.658,1.209 2.075,1.974 0.416,0.768 0.625,1.601 0.625,2.5 M 26.75,22.15 V 17.1 c 0,-0.8 -0.225,-1.434 -0.676,-1.901 C 25.625,14.732 24.883,14.383 23.85,14.15 L 19.65,13.3 C 20.216,11.666 20.5,9.916 20.5,8.05 20.5,5.482 19.975,3.175 18.925,1.125 17.875,-0.926 16.433,-2.676 14.6,-4.125 12.766,-5.575 10.6,-6.692 8.1,-7.475 5.6,-8.259 2.9,-8.65 0,-8.65 c -1.834,0 -3.551,0.15 -5.15,0.45 -1.401,-0.867 -2.1,-1.818 -2.1,-2.851 0,-0.967 0.475,-1.666 1.425,-2.099 0.95,-0.434 2.2,-0.743 3.75,-0.925 1.55,-0.184 3.316,-0.3 5.3,-0.351 1.982,-0.049 4,-0.158 6.05,-0.324 2.049,-0.168 4.066,-0.459 6.049,-0.875 1.984,-0.418 3.75,-1.1 5.301,-2.051 1.55,-0.949 2.8,-2.208 3.75,-3.774 0.949,-1.568 1.425,-3.583 1.425,-6.05 0,-2.301 -0.567,-4.533 -1.7,-6.7 -1.134,-2.167 -2.776,-4.101 -4.925,-5.8 -2.15,-1.7 -4.792,-3.066 -7.925,-4.1 -3.134,-1.033 -6.7,-1.55 -10.7,-1.55 -3.968,0 -7.409,0.375 -10.325,1.125 -2.917,0.75 -5.334,1.75 -7.25,3 -1.917,1.25 -3.342,2.692 -4.276,4.325 -0.933,1.634 -1.399,3.333 -1.399,5.1 0,2.299 0.7,4.25 2.1,5.85 1.4,1.6 3.333,2.883 5.799,3.85 -1.299,0.732 -2.341,1.691 -3.125,2.875 -0.783,1.183 -1.174,2.724 -1.174,4.625 0,1.533 0.557,3.15 1.674,4.849 1.117,1.701 2.842,3.117 5.176,4.25 -2.634,1.401 -4.718,3.276 -6.25,5.625 -1.534,2.351 -2.301,5.092 -2.301,8.226 0,2.566 0.526,4.883 1.576,6.95 1.049,2.066 2.507,3.824 4.375,5.275 1.866,1.45 4.066,2.557 6.6,3.325 2.532,0.766 5.282,1.15 8.25,1.15 4.4,0 8.282,-0.867 11.65,-2.6 z"
             style="fill:#005bab;fill-opacity:1;fill-rule:nonzero;stroke:none"
             id="path122" /></g><g
           id="g124"
           transform="translate(483.9903,261.2676)"><path
             d="m 0,0 c -3.367,-0.167 -6.168,-0.459 -8.4,-0.875 -2.234,-0.417 -4.009,-0.959 -5.326,-1.625 -1.317,-0.667 -2.25,-1.425 -2.799,-2.275 -0.55,-0.85 -0.826,-1.775 -0.826,-2.775 0,-2 0.558,-3.417 1.675,-4.25 1.117,-0.833 2.676,-1.25 4.676,-1.25 2.3,0 4.291,0.407 5.975,1.226 1.682,0.816 3.357,2.091 5.025,3.824 z m 10.649,36.85 h -9.2 c -0.533,0 -1.05,0.091 -1.55,0.275 -0.5,0.184 -1.016,0.525 -1.549,1.025 l -4.401,4.75 c -0.167,0.166 -0.349,0.358 -0.55,0.575 -0.2,0.216 -0.383,0.459 -0.549,0.725 -0.401,-0.5 -0.784,-0.933 -1.151,-1.3 l -4.5,-4.75 c -0.933,-0.867 -1.967,-1.3 -3.099,-1.3 h -9.55 L -13.851,51 H -0.95 Z m -38.75,-14 c 3.034,2.733 6.383,4.775 10.05,6.125 3.667,1.35 7.633,2.025 11.901,2.025 3.066,0 5.807,-0.5 8.224,-1.5 2.417,-1 4.467,-2.393 6.151,-4.175 1.682,-1.784 2.974,-3.909 3.875,-6.375 0.9,-2.468 1.349,-5.167 1.349,-8.1 v -32.4 h -6.3 c -1.299,0 -2.292,0.183 -2.974,0.55 -0.684,0.367 -1.242,1.133 -1.675,2.301 L 1.399,-15.4 c -1.299,-1.133 -2.558,-2.133 -3.774,-3 -1.218,-0.868 -2.476,-1.592 -3.775,-2.174 -1.3,-0.584 -2.693,-1.026 -4.175,-1.326 -1.484,-0.299 -3.143,-0.45 -4.976,-0.45 -2.266,0 -4.333,0.3 -6.199,0.901 -1.867,0.599 -3.476,1.49 -4.825,2.674 -1.351,1.183 -2.393,2.658 -3.125,4.425 -0.734,1.766 -1.101,3.8 -1.101,6.1 0,1.9 0.484,3.801 1.45,5.7 0.967,1.9 2.625,3.625 4.976,5.175 2.35,1.551 5.482,2.833 9.399,3.85 C -10.809,7.492 -5.9,8.066 0,8.2 v 2.65 c 0,3.233 -0.684,5.608 -2.051,7.125 -1.367,1.517 -3.333,2.275 -5.899,2.275 -1.901,0 -3.484,-0.225 -4.75,-0.675 -1.268,-0.45 -2.375,-0.933 -3.325,-1.45 -0.951,-0.518 -1.842,-1 -2.675,-1.449 C -19.534,16.225 -20.5,16 -21.601,16 c -0.966,0 -1.774,0.242 -2.424,0.725 -0.651,0.483 -1.193,1.058 -1.625,1.725 z"
             style="fill:#005bab;fill-opacity:1;fill-rule:nonzero;stroke:none"
             id="path126" /></g><g
           id="g128"
           transform="translate(519.5889,285.2676)"><path
             d="m 0,0 c 1.033,1 2.107,1.916 3.225,2.75 1.117,0.833 2.3,1.551 3.55,2.15 1.25,0.6 2.6,1.067 4.05,1.401 1.45,0.332 3.025,0.5 4.725,0.5 2.8,0 5.283,-0.485 7.45,-1.451 2.166,-0.967 3.991,-2.317 5.475,-4.049 1.483,-1.735 2.6,-3.801 3.35,-6.201 0.75,-2.4 1.125,-5.034 1.125,-7.9 V -45.55 H 19.2 v 32.75 c 0,2.866 -0.667,5.091 -2,6.675 -1.334,1.583 -3.3,2.375 -5.9,2.375 C 9.366,-3.75 7.55,-4.167 5.85,-5 4.15,-5.834 2.533,-7 1,-8.5 V -45.55 H -12.8 V 6 h 8.5 c 1.733,0 2.883,-0.8 3.45,-2.4 z"
             style="fill:#005bab;fill-opacity:1;fill-rule:nonzero;stroke:none"
             id="path130" /></g><g
           id="g132"
           transform="translate(613.0362,286.2178)"><path
             d="m 0,0 c 0.967,0.866 1.975,1.657 3.025,2.375 1.05,0.716 2.166,1.333 3.35,1.85 1.183,0.516 2.45,0.917 3.8,1.2 1.35,0.283 2.807,0.425 4.375,0.425 2.8,0 5.283,-0.484 7.45,-1.451 2.166,-0.966 3.991,-2.316 5.475,-4.049 1.483,-1.734 2.6,-3.8 3.35,-6.201 0.75,-2.399 1.125,-5.033 1.125,-7.899 V -46.5 H 18.2 v 32.75 c 0,2.866 -0.667,5.091 -2,6.675 C 14.866,-5.492 12.9,-4.7 10.3,-4.7 8.366,-4.7 6.55,-5.117 4.85,-5.95 3.15,-6.784 1.533,-7.95 0,-9.45 V -46.5 H -13.8 V 28.05 H 0 Z"
             style="fill:#005bab;fill-opacity:1;fill-rule:nonzero;stroke:none"
             id="path134" /></g><g
           id="g136"
           transform="translate(681.2452,261.2676)"><path
             d="m 0,0 c -3.367,-0.167 -6.168,-0.459 -8.4,-0.875 -2.234,-0.417 -4.009,-0.959 -5.326,-1.625 -1.317,-0.667 -2.25,-1.425 -2.799,-2.275 -0.55,-0.85 -0.826,-1.775 -0.826,-2.775 0,-2 0.558,-3.417 1.675,-4.25 1.117,-0.833 2.676,-1.25 4.676,-1.25 2.3,0 4.291,0.407 5.975,1.226 1.682,0.816 3.357,2.091 5.025,3.824 z m -11.601,51.801 c 1.433,0 2.508,-0.235 3.226,-0.701 0.716,-0.467 1.341,-1.166 1.875,-2.1 L 0.449,36.801 h -7.8 c -1.033,0 -1.875,0.14 -2.524,0.424 -0.65,0.283 -1.309,0.775 -1.976,1.475 L -24.5,51.801 Z m -16.5,-28.951 c 3.034,2.733 6.383,4.775 10.05,6.125 3.667,1.35 7.633,2.025 11.901,2.025 3.066,0 5.807,-0.5 8.224,-1.5 2.417,-1 4.467,-2.393 6.151,-4.175 1.682,-1.784 2.974,-3.909 3.875,-6.375 0.9,-2.468 1.349,-5.167 1.349,-8.1 v -32.4 h -6.3 c -1.299,0 -2.292,0.183 -2.974,0.55 -0.684,0.367 -1.242,1.133 -1.675,2.301 L 1.399,-15.4 c -1.299,-1.133 -2.558,-2.133 -3.774,-3 -1.218,-0.868 -2.476,-1.592 -3.775,-2.174 -1.3,-0.584 -2.693,-1.026 -4.175,-1.326 -1.484,-0.299 -3.143,-0.45 -4.976,-0.45 -2.266,0 -4.333,0.3 -6.199,0.901 -1.867,0.599 -3.476,1.49 -4.825,2.674 -1.351,1.183 -2.393,2.658 -3.125,4.425 -0.734,1.766 -1.101,3.8 -1.101,6.1 0,1.9 0.484,3.801 1.45,5.7 0.967,1.9 2.625,3.625 4.976,5.175 2.35,1.551 5.482,2.833 9.399,3.85 C -10.809,7.492 -5.9,8.066 0,8.2 v 2.65 c 0,3.233 -0.684,5.608 -2.051,7.125 -1.367,1.517 -3.333,2.275 -5.899,2.275 -1.901,0 -3.484,-0.225 -4.75,-0.675 -1.268,-0.45 -2.375,-0.933 -3.325,-1.45 -0.951,-0.518 -1.842,-1 -2.675,-1.449 C -19.534,16.225 -20.5,16 -21.601,16 c -0.966,0 -1.774,0.242 -2.424,0.725 -0.651,0.483 -1.193,1.058 -1.625,1.725 z"
             style="fill:#005bab;fill-opacity:1;fill-rule:nonzero;stroke:none"
             id="path138" /></g><g
           id="g140"
           transform="translate(716.8448,285.2676)"><path
             d="m 0,0 c 1.033,1 2.107,1.916 3.225,2.75 1.117,0.833 2.3,1.551 3.55,2.15 1.25,0.6 2.6,1.067 4.05,1.401 1.45,0.332 3.025,0.5 4.725,0.5 2.8,0 5.283,-0.485 7.45,-1.451 2.166,-0.967 3.991,-2.317 5.475,-4.049 1.483,-1.735 2.6,-3.801 3.35,-6.201 0.75,-2.4 1.125,-5.034 1.125,-7.9 V -45.55 H 19.2 v 32.75 c 0,2.866 -0.667,5.091 -2,6.675 -1.334,1.583 -3.3,2.375 -5.9,2.375 C 9.366,-3.75 7.55,-4.167 5.85,-5 4.15,-5.834 2.533,-7 1,-8.5 V -45.55 H -12.8 V 6 h 8.5 c 1.733,0 2.883,-0.8 3.45,-2.4 z"
             style="fill:#005bab;fill-opacity:1;fill-rule:nonzero;stroke:none"
             id="path142" /></g><g
           id="g144"
           transform="translate(778.0137,267.418)"><path
             d="M 0,0 C 2.832,0 4.925,0.717 6.274,2.15 7.625,3.582 8.3,5.433 8.3,7.699 8.3,10.066 7.625,11.925 6.274,13.275 4.925,14.625 2.832,15.3 0,15.3 c -2.834,0 -4.918,-0.675 -6.25,-2.025 -1.334,-1.35 -2,-3.209 -2,-5.576 0,-2.232 0.675,-4.074 2.024,-5.524 C -4.875,0.725 -2.801,0 0,0 m 13.05,-29.801 c 0,0.901 -0.284,1.635 -0.851,2.201 -0.566,0.567 -1.324,1.016 -2.274,1.35 -0.95,0.332 -2.075,0.574 -3.375,0.725 -1.3,0.15 -2.684,0.266 -4.151,0.349 -1.466,0.084 -2.983,0.158 -4.549,0.226 -1.568,0.066 -3.1,0.182 -4.6,0.35 -1.168,-0.701 -2.125,-1.525 -2.875,-2.475 -0.75,-0.95 -1.125,-2.025 -1.125,-3.226 0,-0.832 0.191,-1.599 0.574,-2.299 0.383,-0.701 1.026,-1.3 1.926,-1.8 0.899,-0.5 2.082,-0.891 3.55,-1.175 1.466,-0.282 3.3,-0.425 5.5,-0.425 2.266,0 4.182,0.15 5.75,0.449 1.566,0.301 2.833,0.726 3.8,1.276 0.966,0.55 1.658,1.209 2.075,1.974 0.416,0.768 0.625,1.601 0.625,2.5 M 26.75,22.15 V 17.1 c 0,-0.8 -0.226,-1.434 -0.676,-1.901 C 25.625,14.732 24.883,14.383 23.85,14.15 L 19.649,13.3 C 20.216,11.666 20.5,9.916 20.5,8.05 20.5,5.482 19.975,3.175 18.925,1.125 17.875,-0.926 16.433,-2.676 14.6,-4.125 12.766,-5.575 10.6,-6.692 8.1,-7.475 5.6,-8.259 2.899,-8.65 0,-8.65 c -1.834,0 -3.551,0.15 -5.15,0.45 -1.401,-0.867 -2.1,-1.818 -2.1,-2.851 0,-0.967 0.475,-1.666 1.425,-2.099 0.95,-0.434 2.2,-0.743 3.75,-0.925 1.55,-0.184 3.316,-0.3 5.3,-0.351 1.982,-0.049 4,-0.158 6.049,-0.324 2.05,-0.168 4.067,-0.459 6.05,-0.875 1.984,-0.418 3.75,-1.1 5.301,-2.051 1.55,-0.949 2.8,-2.208 3.75,-3.774 0.949,-1.568 1.425,-3.583 1.425,-6.05 0,-2.301 -0.568,-4.533 -1.7,-6.7 -1.134,-2.167 -2.776,-4.101 -4.925,-5.8 -2.151,-1.7 -4.792,-3.066 -7.925,-4.1 -3.134,-1.033 -6.7,-1.55 -10.7,-1.55 -3.968,0 -7.409,0.375 -10.325,1.125 -2.917,0.75 -5.334,1.75 -7.25,3 -1.917,1.25 -3.342,2.692 -4.276,4.325 -0.933,1.634 -1.399,3.333 -1.399,5.1 0,2.299 0.7,4.25 2.099,5.85 1.401,1.6 3.333,2.883 5.8,3.85 -1.3,0.732 -2.342,1.691 -3.125,2.875 -0.783,1.183 -1.175,2.724 -1.175,4.625 0,1.533 0.558,3.15 1.675,4.849 1.117,1.701 2.842,3.117 5.176,4.25 -2.634,1.401 -4.718,3.276 -6.25,5.625 -1.534,2.351 -2.301,5.092 -2.301,8.226 0,2.566 0.526,4.883 1.575,6.95 1.05,2.066 2.508,3.824 4.375,5.275 1.867,1.45 4.067,2.557 6.601,3.325 2.532,0.766 5.282,1.15 8.25,1.15 4.399,0 8.282,-0.867 11.649,-2.6 z"
             style="fill:#005bab;fill-opacity:1;fill-rule:nonzero;stroke:none"
             id="path146" /></g><g
           id="g148"
           transform="translate(910.0606,239.7178)"><path
             d="m 0,0 h -15 c -1,0 -1.809,0.25 -2.425,0.75 -0.617,0.5 -1.108,1.083 -1.474,1.75 L -34.6,29.2 c -0.167,-0.367 -0.325,-0.725 -0.475,-1.075 -0.15,-0.351 -0.324,-0.675 -0.525,-0.976 L -50.5,2.5 C -50.934,1.866 -51.442,1.292 -52.024,0.774 -52.608,0.258 -53.35,0 -54.25,0 h -14 l 23.75,37.35 -22.85,35.2 h 15 c 1,0 1.733,-0.133 2.201,-0.401 0.465,-0.266 0.882,-0.699 1.25,-1.299 L -33.3,45.2 c 0.166,0.4 0.35,0.808 0.55,1.225 0.2,0.416 0.433,0.842 0.7,1.275 l 14,22.9 c 0.401,0.667 0.842,1.158 1.325,1.475 0.483,0.317 1.076,0.475 1.775,0.475 H -0.6 L -23.649,38 Z"
             style="fill:#005bab;fill-opacity:1;fill-rule:nonzero;stroke:none"
             id="path150" /></g><g
           id="g152"
           transform="translate(941.1202,261.2676)"><path
             d="m 0,0 c -3.367,-0.167 -6.168,-0.459 -8.4,-0.875 -2.234,-0.417 -4.009,-0.959 -5.326,-1.625 -1.317,-0.667 -2.25,-1.425 -2.799,-2.275 -0.55,-0.85 -0.826,-1.775 -0.826,-2.775 0,-2 0.558,-3.417 1.675,-4.25 1.117,-0.833 2.676,-1.25 4.676,-1.25 2.3,0 4.291,0.407 5.975,1.226 1.682,0.816 3.357,2.091 5.025,3.824 z m 10.649,36.85 h -9.2 c -0.533,0 -1.05,0.091 -1.55,0.275 -0.5,0.184 -1.016,0.525 -1.549,1.025 l -4.401,4.75 c -0.167,0.166 -0.349,0.358 -0.55,0.575 -0.2,0.216 -0.383,0.459 -0.549,0.725 -0.401,-0.5 -0.784,-0.933 -1.151,-1.3 l -4.5,-4.75 c -0.933,-0.867 -1.967,-1.3 -3.099,-1.3 h -9.55 L -13.851,51 H -0.95 Z m -38.75,-14 c 3.034,2.733 6.383,4.775 10.05,6.125 3.667,1.35 7.633,2.025 11.901,2.025 3.066,0 5.807,-0.5 8.224,-1.5 2.417,-1 4.467,-2.393 6.151,-4.175 1.682,-1.784 2.974,-3.909 3.875,-6.375 0.9,-2.468 1.349,-5.167 1.349,-8.1 v -32.4 h -6.3 c -1.299,0 -2.292,0.183 -2.974,0.55 -0.684,0.367 -1.242,1.133 -1.675,2.301 L 1.399,-15.4 c -1.299,-1.133 -2.558,-2.133 -3.774,-3 -1.218,-0.868 -2.476,-1.592 -3.775,-2.174 -1.3,-0.584 -2.693,-1.026 -4.175,-1.326 -1.484,-0.299 -3.143,-0.45 -4.976,-0.45 -2.266,0 -4.333,0.3 -6.199,0.901 -1.867,0.599 -3.476,1.49 -4.825,2.674 -1.351,1.183 -2.393,2.658 -3.125,4.425 -0.734,1.766 -1.101,3.8 -1.101,6.1 0,1.9 0.484,3.801 1.45,5.7 0.967,1.9 2.625,3.625 4.976,5.175 2.35,1.551 5.482,2.833 9.399,3.85 C -10.809,7.492 -5.9,8.066 0,8.2 v 2.65 c 0,3.233 -0.684,5.608 -2.051,7.125 -1.367,1.517 -3.333,2.275 -5.899,2.275 -1.901,0 -3.484,-0.225 -4.75,-0.675 -1.268,-0.45 -2.375,-0.933 -3.325,-1.45 -0.951,-0.518 -1.842,-1 -2.675,-1.449 C -19.534,16.225 -20.5,16 -21.601,16 c -0.966,0 -1.774,0.242 -2.424,0.725 -0.651,0.483 -1.193,1.058 -1.625,1.725 z"
             style="fill:#005bab;fill-opacity:1;fill-rule:nonzero;stroke:none"
             id="path154" /></g><g
           id="g156"
           transform="translate(1009.2198,291.2676)"><path
             d="m 0,0 -27.8,-65.4 c -0.433,-0.932 -0.959,-1.633 -1.575,-2.1 -0.617,-0.467 -1.592,-0.699 -2.925,-0.699 H -42.55 L -32.8,-47.4 -53.5,0 h 12.1 c 1.1,0 1.95,-0.25 2.55,-0.75 0.6,-0.5 1.033,-1.084 1.3,-1.75 l 9.8,-24.65 c 0.366,-0.967 0.691,-1.942 0.975,-2.924 0.283,-0.985 0.558,-1.959 0.825,-2.926 0.6,1.967 1.283,3.934 2.05,5.9 l 9.1,24.6 c 0.267,0.732 0.75,1.333 1.45,1.801 0.7,0.466 1.466,0.699 2.3,0.699 z"
             style="fill:#005bab;fill-opacity:1;fill-rule:nonzero;stroke:none"
             id="path158" /></g><g
           id="g160"
           transform="translate(1101.918,276.0176)"><path
             d="m 0,0 c 0,3.801 -0.5,7.217 -1.5,10.25 -1,3.033 -2.434,5.6 -4.3,7.7 -1.867,2.101 -4.142,3.716 -6.825,4.851 -2.684,1.133 -5.725,1.699 -9.125,1.699 h -12.8 v -49.05 h 12.8 c 3.4,0 6.441,0.558 9.125,1.675 2.683,1.117 4.958,2.732 6.825,4.85 1.866,2.117 3.3,4.691 4.3,7.725 1,3.032 1.5,6.466 1.5,10.3 m 15.4,0 c 0,-5.3 -0.892,-10.175 -2.675,-14.625 -1.784,-4.449 -4.3,-8.275 -7.55,-11.475 -3.25,-3.2 -7.158,-5.7 -11.725,-7.5 -4.567,-1.8 -9.634,-2.7 -15.2,-2.7 h -27.9 v 72.55 h 27.9 c 5.566,0 10.633,-0.9 15.2,-2.699 4.567,-1.801 8.475,-4.309 11.725,-7.526 3.25,-3.216 5.766,-7.043 7.55,-11.474 C 14.508,10.117 15.4,5.267 15.4,0"
             style="fill:#005bab;fill-opacity:1;fill-rule:nonzero;stroke:none"
             id="path162" /></g><g
           id="g164"
           transform="translate(1153.7461,227.9678)"><path
             d="M 0,0 C 0,-1 -0.199,-1.941 -0.6,-2.825 -1,-3.708 -1.55,-4.483 -2.25,-5.15 -2.949,-5.816 -3.758,-6.341 -4.675,-6.726 -5.592,-7.108 -6.566,-7.3 -7.6,-7.3 c -1,0 -1.95,0.192 -2.849,0.574 -0.901,0.385 -1.684,0.91 -2.351,1.576 -0.667,0.667 -1.2,1.442 -1.599,2.325 C -14.8,-1.941 -15,-1 -15,0 c 0,1.034 0.2,2 0.601,2.899 0.399,0.901 0.932,1.684 1.599,2.351 0.667,0.667 1.45,1.192 2.351,1.575 0.899,0.383 1.849,0.574 2.849,0.574 1.034,0 2.008,-0.191 2.925,-0.574 C -3.758,6.442 -2.949,5.917 -2.25,5.25 -1.55,4.583 -1,3.8 -0.6,2.899 -0.199,2 0,1.034 0,0 m 34.75,71.2 c 0.2,-0.668 0.367,-1.475 0.5,-2.426 0.133,-0.949 0.2,-1.958 0.2,-3.024 0,-2.233 -0.349,-4.351 -1.05,-6.351 -0.7,-2 -1.783,-3.774 -3.25,-5.324 C 29.684,52.524 27.809,51.267 25.525,50.3 23.242,49.333 20.517,48.767 17.351,48.6 V 11.75 h -8.5 c -1.768,0 -2.901,0.8 -3.401,2.399 L 4.551,17.75 C 3.517,16.75 2.45,15.833 1.351,15 0.25,14.167 -0.925,13.45 -2.175,12.85 c -1.25,-0.6 -2.599,-1.068 -4.05,-1.4 -1.45,-0.333 -3.025,-0.5 -4.724,-0.5 -2.801,0 -5.293,0.484 -7.476,1.449 -2.183,0.967 -4.009,2.317 -5.474,4.051 -1.468,1.733 -2.584,3.8 -3.351,6.199 -0.767,2.401 -1.149,5.034 -1.149,7.901 V 63.3 H -14.6 V 30.55 c 0,-2.867 0.659,-5.092 1.975,-6.675 1.316,-1.583 3.275,-2.375 5.875,-2.375 1.934,0 3.75,0.425 5.45,1.274 1.7,0.851 3.317,2.008 4.851,3.476 V 63.3 h 13.8 v -8.75 c 2.099,0.266 3.657,0.908 4.674,1.925 1.017,1.016 1.526,2.141 1.526,3.375 0,0.533 -0.117,1.008 -0.351,1.424 -0.233,0.417 -0.492,0.859 -0.774,1.326 -0.284,0.466 -0.543,0.983 -0.776,1.549 -0.233,0.567 -0.349,1.25 -0.349,2.051 0,1.6 0.55,2.832 1.649,3.699 1.101,0.868 2.817,1.301 5.151,1.301 z"
             style="fill:#005bab;fill-opacity:1;fill-rule:nonzero;stroke:none"
             id="path166" /></g><g
           id="g168"
           transform="translate(1205.2959,285.2676)"><path
             d="m 0,0 c 1.033,1 2.108,1.916 3.225,2.75 1.117,0.833 2.3,1.551 3.55,2.15 1.25,0.6 2.6,1.067 4.05,1.401 1.45,0.332 3.025,0.5 4.725,0.5 2.8,0 5.283,-0.485 7.45,-1.451 2.166,-0.967 3.991,-2.317 5.475,-4.049 1.483,-1.735 2.6,-3.801 3.35,-6.201 0.75,-2.4 1.125,-5.034 1.125,-7.9 V -45.55 H 19.2 v 32.75 c 0,2.866 -0.667,5.091 -2,6.675 -1.334,1.583 -3.3,2.375 -5.9,2.375 C 9.366,-3.75 7.55,-4.167 5.85,-5 4.15,-5.834 2.533,-7 1,-8.5 V -45.55 H -12.8 V 6 h 8.5 c 1.733,0 2.883,-0.8 3.45,-2.4 z"
             style="fill:#005bab;fill-opacity:1;fill-rule:nonzero;stroke:none"
             id="path170" /></g><g
           id="g172"
           transform="translate(1266.4648,267.418)"><path
             d="M 0,0 C 2.832,0 4.925,0.717 6.274,2.15 7.625,3.582 8.3,5.433 8.3,7.699 8.3,10.066 7.625,11.925 6.274,13.275 4.925,14.625 2.832,15.3 0,15.3 c -2.834,0 -4.918,-0.675 -6.25,-2.025 -1.334,-1.35 -2,-3.209 -2,-5.576 0,-2.232 0.675,-4.074 2.024,-5.524 C -4.875,0.725 -2.801,0 0,0 m 13.05,-29.801 c 0,0.901 -0.284,1.635 -0.851,2.201 -0.566,0.567 -1.324,1.016 -2.274,1.35 -0.95,0.332 -2.075,0.574 -3.375,0.725 -1.3,0.15 -2.684,0.266 -4.151,0.349 -1.466,0.084 -2.983,0.158 -4.549,0.226 -1.568,0.066 -3.1,0.182 -4.6,0.35 -1.168,-0.701 -2.125,-1.525 -2.875,-2.475 -0.75,-0.95 -1.125,-2.025 -1.125,-3.226 0,-0.832 0.191,-1.599 0.574,-2.299 0.383,-0.701 1.026,-1.3 1.926,-1.8 0.899,-0.5 2.082,-0.891 3.55,-1.175 1.466,-0.282 3.3,-0.425 5.5,-0.425 2.266,0 4.182,0.15 5.75,0.449 1.566,0.301 2.833,0.726 3.8,1.276 0.966,0.55 1.658,1.209 2.075,1.974 0.416,0.768 0.625,1.601 0.625,2.5 M 26.75,22.15 V 17.1 c 0,-0.8 -0.226,-1.434 -0.676,-1.901 C 25.625,14.732 24.883,14.383 23.85,14.15 L 19.649,13.3 C 20.216,11.666 20.5,9.916 20.5,8.05 20.5,5.482 19.975,3.175 18.925,1.125 17.875,-0.926 16.433,-2.676 14.6,-4.125 12.766,-5.575 10.6,-6.692 8.1,-7.475 5.6,-8.259 2.899,-8.65 0,-8.65 c -1.834,0 -3.551,0.15 -5.15,0.45 -1.401,-0.867 -2.1,-1.818 -2.1,-2.851 0,-0.967 0.475,-1.666 1.425,-2.099 0.95,-0.434 2.2,-0.743 3.75,-0.925 1.55,-0.184 3.316,-0.3 5.3,-0.351 1.982,-0.049 4,-0.158 6.049,-0.324 2.05,-0.168 4.067,-0.459 6.05,-0.875 1.984,-0.418 3.75,-1.1 5.301,-2.051 1.55,-0.949 2.8,-2.208 3.75,-3.774 0.949,-1.568 1.425,-3.583 1.425,-6.05 0,-2.301 -0.568,-4.533 -1.7,-6.7 -1.134,-2.167 -2.776,-4.101 -4.925,-5.8 -2.151,-1.7 -4.792,-3.066 -7.925,-4.1 -3.134,-1.033 -6.7,-1.55 -10.7,-1.55 -3.968,0 -7.409,0.375 -10.325,1.125 -2.917,0.75 -5.334,1.75 -7.25,3 -1.917,1.25 -3.342,2.692 -4.276,4.325 -0.933,1.634 -1.399,3.333 -1.399,5.1 0,2.299 0.7,4.25 2.099,5.85 1.401,1.6 3.333,2.883 5.8,3.85 -1.3,0.732 -2.342,1.691 -3.125,2.875 -0.783,1.183 -1.175,2.724 -1.175,4.625 0,1.533 0.558,3.15 1.675,4.849 1.117,1.701 2.842,3.117 5.176,4.25 -2.634,1.401 -4.718,3.276 -6.25,5.625 -1.534,2.351 -2.301,5.092 -2.301,8.226 0,2.566 0.526,4.883 1.575,6.95 1.05,2.066 2.508,3.824 4.375,5.275 1.867,1.45 4.067,2.557 6.601,3.325 2.532,0.766 5.282,1.15 8.25,1.15 4.399,0 8.282,-0.867 11.649,-2.6 z"
             style="fill:#005bab;fill-opacity:1;fill-rule:nonzero;stroke:none"
             id="path174" /></g></g></g></g></svg>
